PathFileType	4	(X/Y/Z)	./resultDataOpenSim/trcMotMarkerGrf/sub09/qtm-14-06.trc
DataRate	CameraRate	NumFrames	NumMarkers	Units	OrigDataRate	OrigDataStartFrame	OrigNumFrames
250.000000	250.000000	11	24	m	250.000000	184	490
Frame#	Time	L.Toe.Tip			R.Toe.Tip			L.Ankle.Lat			R.Ankle.Lat			L.Ankle.Med			R.Ankle.Med			L.Heel			R.Heel			L.Knee.Lat			R.Knee.Lat			L.Knee.Med			R.Knee.Med			L.Thigh.Upper			R.Thigh.Upper			L.ASIS			R.ASIS			V.Sacral			L.Acromium			R.Acromium			C7			L.Elbow			R.Elbow			L.Wrist.Lat			R.Wrist.Lat
		X1	Y1	Z1	X2	Y2	Z2	X3	Y3	Z3	X4	Y4	Z4	X5	Y5	Z5	X6	Y6	Z6	X7	Y7	Z7	X8	Y8	Z8	X9	Y9	Z9	X10	Y10	Z10	X11	Y11	Z11	X12	Y12	Z12	X13	Y13	Z13	X14	Y14	Z14	X15	Y15	Z15	X16	Y16	Z16	X17	Y17	Z17	X18	Y18	Z18	X19	Y19	Z19	X20	Y20	Z20	X21	Y21	Z21	X22	Y22	Z22	X23	Y23	Z23	X24	Y24	Z24

184	0.732	0.1544953	-0.034324047	0.039777115	-0.53464446	0.060887068	0.092617409	0.0097070261	-0.0027344702	-0.016638307	-0.58714006	0.20331103	0.13756599	0.021184378	0.020106261	0.080008132	-0.53339693	0.20440637	0.055058725	-0.065607172	-0.036962076	0.022336916	-0.62823185	0.24538915	0.076586267	0.069648414	0.41037233	-0.079322348	-0.18264785	0.40343736	0.22743028	0.05487089	0.41730378	0.045252111	-0.17118767	0.37451745	0.10077424	-0.090801318	0.7975062	-0.14144782	-0.16102781	0.79804588	0.22848047	-0.02869815	0.88307408	-0.068204638	-0.049394482	0.87927336	0.17011532	-0.18010195	0.92466189	0.0054271404	-0.07134654	1.3314184	-0.12589111	-0.11935203	1.3503886	0.20395071	-0.15799396	1.3889168	0.033086413	-0.22049687	0.9992434	-0.18458085	-0.23524497	1.0024182	0.292632	-0.12223874	0.75875801	-0.22428658	-0.05800424	0.79455809	0.31400113
185	0.736	0.15436589	-0.034420214	0.039891666	-0.52862472	0.063505048	0.094084699	0.0099923529	-0.0032254836	-0.017088905	-0.57578282	0.20847803	0.13859144	0.020960605	0.019946889	0.07978486	-0.52212974	0.20842078	0.056095193	-0.06565688	-0.036943885	0.021607424	-0.61616419	0.2522092	0.078335862	0.074484433	0.40874102	-0.079830405	-0.17185637	0.40222011	0.2278984	0.061974357	0.41568771	0.044695472	-0.15804482	0.37338225	0.10164653	-0.086139583	0.79753347	-0.14190916	-0.1542993	0.79713267	0.22823942	-0.022099078	0.88362199	-0.068858008	-0.043226978	0.87874453	0.16948524	-0.17507703	0.92408787	0.0068894427	-0.06314808	1.3311144	-0.12584401	-0.11230178	1.3500955	0.20372723	-0.15045853	1.388482	0.032537654	-0.21174644	0.99886684	-0.18497432	-0.22973568	1.0025806	0.29161676	-0.1136039	0.7581981	-0.22405517	-0.054456743	0.79346218	0.31442461
186	0.74	0.15423152	-0.034507228	0.039939702	-0.52177309	0.066391725	0.095726803	0.010238761	-0.0036356482	-0.017543245	-0.56414094	0.21342469	0.13961278	0.020785552	0.019842036	0.079565497	-0.51055401	0.21242538	0.057005094	-0.065741034	-0.03689293	0.021019253	-0.60362586	0.25875006	0.079954941	0.078929853	0.40682967	-0.080204923	-0.16074844	0.4011716	0.22826156	0.068905094	0.41379804	0.044273476	-0.14503435	0.37248086	0.10220283	-0.081258647	0.79733457	-0.14207772	-0.14765779	0.79640287	0.22794428	-0.015510004	0.88422279	-0.069496006	-0.037138211	0.87831847	0.16896076	-0.17327763	0.92436029	0.0099636664	-0.054947181	1.3309237	-0.12574748	-0.10506284	1.3499039	0.20353806	-0.14305427	1.3881818	0.032244297	-0.20294576	0.99858923	-0.18530271	-0.22439207	1.002931	0.2906582	-0.10481964	0.75774413	-0.22376042	-0.05104931	0.79247884	0.31479926
187	0.744	0.15418358	-0.034581621	0.039961848	-0.51393298	0.069609035	0.097555673	0.010557653	-0.0039395244	-0.017840063	-0.55228878	0.21823916	0.14063205	0.020816562	0.019747496	0.079463956	-0.49869269	0.21645249	0.057790984	-0.06577346	-0.036772116	0.020681081	-0.59060889	0.26498386	0.081213887	0.08297109	0.40483591	-0.080538692	-0.14864123	0.40031885	0.22864164	0.075609671	0.41171198	0.044063783	-0.1321852	0.37183714	0.10243876	-0.076129342	0.79698634	-0.14210249	-0.14106066	0.79580035	0.22761692	-0.0090048996	0.8847839	-0.070110382	-0.031125928	0.87799445	0.16855366	-0.17393471	0.92579921	0.014652562	-0.046747587	1.3308314	-0.12561828	-0.097671488	1.3498131	0.20338057	-0.13575214	1.388019	0.032116595	-0.19412298	0.99837699	-0.18560466	-0.21907525	1.0034064	0.28970699	-0.095897118	0.7573841	-0.22340633	-0.047637026	0.79163609	0.31514303
188	0.748	0.1542348	-0.034643019	0.039996616	-0.50492799	0.073191997	0.099612866	0.010973335	-0.0041387083	-0.017894415	-0.54025685	0.22302786	0.14163014	0.021043923	0.019627712	0.079540274	-0.48657075	0.22056245	0.058458076	-0.06573517	-0.036584434	0.020610306	-0.57732542	0.27089777	0.082092121	0.086577035	0.40292602	-0.080867667	-0.13560407	0.39964286	0.22899679	0.081872107	0.40948122	0.044045055	-0.11948472	0.37147868	0.10247144	-0.070700397	0.79661116	-0.14214836	-0.13447341	0.79526935	0.22727649	-0.0026485986	0.88523326	-0.070698153	-0.025199615	0.87778702	0.16826151	-0.17480345	0.92817999	0.020211995	-0.038569137	1.3308173	-0.12547371	-0.09018447	1.3498201	0.20325339	-0.12846737	1.3879715	0.031985716	-0.18528513	0.99820283	-0.18590013	-0.21363315	1.0039728	0.28873599	-0.08685338	0.75711028	-0.22300013	-0.044186906	0.790917	0.31546691
189	0.752	0.15434033	-0.03469518	0.040064002	-0.49469199	0.077103765	0.1019528	0.011443369	-0.0042571259	-0.017744099	-0.528004	0.22784609	0.14257539	0.021362095	0.019468743	0.079764502	-0.4742153	0.2247746	0.059015349	-0.065655388	-0.0363564	0.020734539	-0.5640245	0.27641872	0.082714476	0.089785053	0.40112899	-0.081120952	-0.1220582	0.39909582	0.22920192	0.087326021	0.40720338	0.044109581	-0.10686392	0.37141455	0.10250574	-0.064930932	0.79631463	-0.14229953	-0.12787462	0.79476826	0.22693581	0.003531878	0.88554047	-0.071257459	-0.019364227	0.87770705	0.16806239	-0.1734824	0.93061861	0.025075961	-0.030421735	1.3308623	-0.12531399	-0.082675572	1.3499221	0.20315838	-0.12116377	1.3880188	0.031783937	-0.17644552	0.99805899	-0.18620462	-0.20799417	1.0046372	0.28775241	-0.077701976	0.7569264	-0.22255493	-0.04071994	0.7902794	0.31577461
190	0.756	0.15444045	-0.034742423	0.040157688	-0.48332867	0.081229596	0.10461638	0.011907182	-0.0043426138	-0.017508813	-0.5154483	0.23266717	0.14343986	0.021655717	0.019286425	0.080038084	-0.46164577	0.22901976	0.059476511	-0.065576149	-0.036122584	0.020926724	-0.55081571	0.28146352	0.083181746	0.092669756	0.39942322	-0.081191632	-0.10831633	0.39865375	0.22918811	0.091719785	0.40508598	0.044192233	-0.094232973	0.3716017	0.10262518	-0.058858412	0.79613487	-0.14254068	-0.1212547	0.79428133	0.2265985	0.0095600063	0.88572439	-0.071786923	-0.013612331	0.87775516	0.16792723	-0.16944379	0.93229733	0.028019766	-0.022301631	1.3309646	-0.12512799	-0.075219209	1.3501227	0.20309395	-0.11385457	1.3881518	0.031540383	-0.16762842	0.99795821	-0.18653095	-0.20225606	1.0054329	0.28680806	-0.068458293	0.75684062	-0.2220844	-0.037259331	0.78969577	0.31606861
191	0.76	0.15449404	-0.034786678	0.040253977	-0.47099166	0.085441686	0.10761726	0.012314502	-0.004446546	-0.017306514	-0.50255122	0.23740184	0.14421327	0.021868802	0.019116972	0.080260967	-0.44886009	0.23315112	0.059869264	-0.065529638	-0.03591176	0.021068057	-0.53764116	0.28602605	0.083507123	0.095296456	0.39786131	-0.081034199	-0.094505697	0.39833262	0.22899642	0.09507524	0.4034066	0.04432209	-0.081487813	0.37196996	0.10267197	-0.052612942	0.79603783	-0.14280819	-0.11460946	0.79381799	0.22626352	0.01548968	0.88584374	-0.072285385	-0.0079275151	0.87793042	0.16782946	-0.16384207	0.9331083	0.029080895	-0.014210513	1.3311399	-0.12491382	-0.067864272	1.3504281	0.20305429	-0.1065665	1.3883743	0.031299624	-0.15884813	0.99791479	-0.18688604	-0.19658417	1.0063781	0.28596049	-0.059138934	0.75685432	-0.22158696	-0.033822475	0.78916888	0.31635192
192	0.764	0.15448782	-0.03482771	0.040335999	-0.4577977	0.089653488	0.11090897	0.012626442	-0.0045854706	-0.017198059	-0.48935602	0.24194672	0.14491362	0.022001562	0.018990101	0.080385708	-0.43584604	0.23700881	0.060229918	-0.065531334	-0.035739525	0.021100214	-0.52438613	0.2901612	0.083699884	0.097789798	0.39658988	-0.080755083	-0.080667005	0.39817901	0.22870808	0.097501002	0.40235526	0.04451051	-0.068541805	0.37250078	0.10243394	-0.046321515	0.79595782	-0.14305871	-0.10793447	0.7934074	0.22593112	0.021368049	0.8859726	-0.072750194	-0.0022915092	0.87823915	0.16774486	-0.1577035	0.93346018	0.029148894	-0.0061549396	1.3314035	-0.12467441	-0.060632398	1.3508397	0.2030359	-0.099320325	1.3887056	0.031078279	-0.15009895	0.99792961	-0.18727009	-0.19103973	1.0074481	0.28522503	-0.049744014	0.75696229	-0.22103838	-0.030413967	0.7887188	0.31662615
193	0.768	0.15443211	-0.034864243	0.040410589	-0.44388231	0.093804758	0.11436812	0.01282122	-0.0047261034	-0.017183169	-0.47591632	0.2462324	0.14560225	0.022066111	0.018912024	0.080418856	-0.42261119	0.24049628	0.060582388	-0.065579171	-0.035606855	0.021033106	-0.51100747	0.29391121	0.083847032	0.1003763	0.39574579	-0.080563913	-0.06683418	0.39824674	0.22835315	0.099032771	0.40191392	0.044680355	-0.055404148	0.37325889	0.1018723	-0.039990121	0.79585268	-0.1432978	-0.10122367	0.79309522	0.22560405	0.027217578	0.88617323	-0.073179261	0.0033065811	0.87869316	0.1676535	-0.15105963	0.93376729	0.029089366	0.0018662233	1.3317575	-0.12440287	-0.053537848	1.3513547	0.20303908	-0.092125879	1.3891728	0.030867524	-0.14137062	0.99799899	-0.18767914	-0.18559519	1.0085943	0.28458527	-0.040249195	0.75716477	-0.22040641	-0.027025054	0.78836565	0.31689091
194	0.772	0.15435248	-0.034894634	0.04049888	-0.42943473	0.09782794	0.11785641	0.012912629	-0.0048164098	-0.017224898	-0.46221959	0.25023226	0.14636823	0.022078066	0.018872538	0.080394663	-0.40919602	0.24360869	0.060935706	-0.06565497	-0.035502862	0.020914658	-0.49754666	0.29727623	0.084076451	0.10320027	0.39532245	-0.080546031	-0.053039009	0.39857233	0.22790976	0.099793068	0.40190164	0.044775568	-0.042133092	0.37434067	0.10110249	-0.033516581	0.79573193	-0.14355938	-0.094473171	0.79293623	0.22528668	0.033043818	0.88647368	-0.073578541	0.008873898	0.87930153	0.16754536	-0.14359924	0.93422503	0.029369257	0.0098548739	1.3321946	-0.12408857	-0.046595868	1.351969	0.20306352	-0.084984762	1.3897942	0.030655628	-0.13266181	0.99812856	-0.18811195	-0.18023426	1.0097868	0.28402626	-0.030629011	0.75747292	-0.21967709	-0.023645227	0.78812014	0.31714395
